{
  "accessors": [
    {
      "bufferView": 2,
      "componentType": 5126,
      "count": 592,
      "max": [
        10.895383834838867,
        9.5392618179321289,
        89.413238525390625
      ],
      "min": [
        -10.269189834594727,
        -9.8167085647583008,
        0.52585077285766602
      ],
      "type": "VEC3"
    },
    {
      "bufferView": 2,
      "byteOffset": 7104,
      "componentType": 5126,
      "count": 592,
      "max": [
        0.9525991678237915,
        0.97214072942733765,
        0.99961918592453003
      ],
      "min": [
        -0.95891809463500977,
        -0.96041625738143921,
        -0.26451101899147034
      ],
      "type": "VEC3"
    },
    {
      "bufferView": 3,
      "componentType": 5126,
      "count": 592,
      "max": [
        0.96041619777679443,
        0.94787424802780151,
        0.45348784327507019,
        1
      ],
      "min": [
        -0.97214066982269287,
        -0.95477837324142456,
        -0.42099907994270325,
        1
      ],
      "type": "VEC4"
    },
    {
      "bufferView": 1,
      "componentType": 5126,
      "count": 592,
      "max": [
        1,
        1
      ],
      "min": [
        0,
        0
      ],
      "type": "VEC2"
    },
    {
      "bufferView": 0,
      "componentType": 5125,
      "count": 888,
      "max": [
        591
      ],
      "min": [
        0
      ],
      "type": "SCALAR"
    },
    {
      "bufferView": 2,
      "byteOffset": 14208,
      "componentType": 5126,
      "count": 2052,
      "max": [
        54.441867828369141,
        60.638454437255859,
        100.05882263183594
      ],
      "min": [
        -62.231689453125,
        -53.573848724365234,
        49.412906646728516
      ],
      "type": "VEC3"
    },
    {
      "bufferView": 2,
      "byteOffset": 38832,
      "componentType": 5126,
      "count": 2052,
      "max": [
        0.99929845333099365,
        0.99857348203659058,
        0.99978429079055786
      ],
      "min": [
        -0.99995511770248413,
        -0.99697583913803101,
        -0.99925363063812256
      ],
      "type": "VEC3"
    },
    {
      "bufferView": 3,
      "byteOffset": 9472,
      "componentType": 5126,
      "count": 2052,
      "max": [
        0.9958609938621521,
        0.99848479032516479,
        0.99905991554260254,
        1
      ],
      "min": [
        -0.99997884035110474,
        -0.99918079376220703,
        -0.99850541353225708,
        -1
      ],
      "type": "VEC4"
    },
    {
      "bufferView": 1,
      "byteOffset": 4736,
      "componentType": 5126,
      "count": 2052,
      "max": [
        1,
        1
      ],
      "min": [
        0,
        0
      ],
      "type": "VEC2"
    },
    {
      "bufferView": 0,
      "byteOffset": 3552,
      "componentType": 5125,
      "count": 8208,
      "max": [
        2051
      ],
      "min": [
        0
      ],
      "type": "SCALAR"
    },
    {
      "bufferView": 2,
      "byteOffset": 63456,
      "componentType": 5126,
      "count": 288,
      "max": [
        12.404471397399902,
        16.612804412841797,
        90.783149719238281
      ],
      "min": [
        -13.442912101745605,
        -9.9551239013671875,
        76.290176391601562
      ],
      "type": "VEC3"
    },
    {
      "bufferView": 2,
      "byteOffset": 66912,
      "componentType": 5126,
      "count": 288,
      "max": [
        0.97878795862197876,
        0.99829941987991333,
        0.98618358373641968
      ],
      "min": [
        -0.97878783941268921,
        -0.99829947948455811,
        -0.98618358373641968
      ],
      "type": "VEC3"
    },
    {
      "bufferView": 3,
      "byteOffset": 42304,
      "componentType": 5126,
      "count": 288,
      "max": [
        0.99868118762969971,
        0.99688857793807983,
        0.79619020223617554,
        1
      ],
      "min": [
        -0.99868124723434448,
        -0.99688857793807983,
        -0.79619032144546509,
        1
      ],
      "type": "VEC4"
    },
    {
      "bufferView": 1,
      "byteOffset": 21152,
      "componentType": 5126,
      "count": 288,
      "max": [
        1,
        1
      ],
      "min": [
        0,
        0
      ],
      "type": "VEC2"
    },
    {
      "bufferView": 0,
      "byteOffset": 36384,
      "componentType": 5125,
      "count": 432,
      "max": [
        287
      ],
      "min": [
        0
      ],
      "type": "SCALAR"
    }
  ],
  "asset": {
    "extras": {
      "author": "Anna Vidal ENTI (https://sketchfab.com/annavidal)",
      "license": "CC-BY-4.0 (http://creativecommons.org/licenses/by/4.0/)",
      "source": "https://sketchfab.com/models/32a7255a308e46cfbdabeb996405ba47",
      "title": "Low poly palm tree with coconuts (Separately)"
    },
    "generator": "Sketchfab-3.23.2",
    "version": "2.0"
  },
  "bufferViews": [
    {
      "buffer": 0,
      "byteLength": 38112,
      "byteOffset": 0,
      "name": "floatBufferViews",
      "target": 34963
    },
    {
      "buffer": 0,
      "byteLength": 23456,
      "byteOffset": 38112,
      "byteStride": 8,
      "name": "floatBufferViews",
      "target": 34962
    },
    {
      "buffer": 0,
      "byteLength": 70368,
      "byteOffset": 61568,
      "byteStride": 12,
      "name": "floatBufferViews",
      "target": 34962
    },
    {
      "buffer": 0,
      "byteLength": 46912,
      "byteOffset": 131936,
      "byteStride": 16,
      "name": "floatBufferViews",
      "target": 34962
    }
  ],
  "buffers": [
    {
      "byteLength": 178848,
      "uri": "scene.bin"
    }
  ],
  "images": [
    {
      "uri": "textures/Material_42_baseColor.png"
    },
    {
      "uri": "textures/Material_45_baseColor.png"
    },
    {
      "uri": "textures/Material_41_baseColor.png"
    }
  ],
  "materials": [
    {
      "doubleSided": true,
      "emissiveFactor": [
        0,
        0,
        0
      ],
      "name": "Material_41",
      "pbrMetallicRoughness": {
        "baseColorFactor": [
          1,
          1,
          1,
          1
        ],
        "baseColorTexture": {
          "index": 2,
          "texCoord": 0
        },
        "metallicFactor": 0,
        "roughnessFactor": 0.89297135959999996
      }
    },
    {
      "doubleSided": true,
      "emissiveFactor": [
        0,
        0,
        0
      ],
      "name": "Material_42",
      "pbrMetallicRoughness": {
        "baseColorFactor": [
          1,
          1,
          1,
          1
        ],
        "baseColorTexture": {
          "index": 0,
          "texCoord": 0
        },
        "metallicFactor": 0,
        "roughnessFactor": 0.89297135959999996
      }
    },
    {
      "doubleSided": true,
      "emissiveFactor": [
        0,
        0,
        0
      ],
      "name": "Material_45",
      "pbrMetallicRoughness": {
        "baseColorFactor": [
          1,
          1,
          1,
          1
        ],
        "baseColorTexture": {
          "index": 1,
          "texCoord": 0
        },
        "metallicFactor": 0,
        "roughnessFactor": 0.89297135959999996
      }
    }
  ],
  "meshes": [
    {
      "name": "Tronco_Material #41_0",
      "primitives": [
        {
          "attributes": {
            "NORMAL": 1,
            "POSITION": 0,
            "TANGENT": 2,
            "TEXCOORD_0": 3
          },
          "indices": 4,
          "material": 0,
          "mode": 4
        }
      ]
    },
    {
      "name": "Tronco_Material #42_0",
      "primitives": [
        {
          "attributes": {
            "NORMAL": 6,
            "POSITION": 5,
            "TANGENT": 7,
            "TEXCOORD_0": 8
          },
          "indices": 9,
          "material": 1,
          "mode": 4
        }
      ]
    },
    {
      "name": "Tronco_Material #45_0",
      "primitives": [
        {
          "attributes": {
            "NORMAL": 11,
            "POSITION": 10,
            "TANGENT": 12,
            "TEXCOORD_0": 13
          },
          "indices": 14,
          "material": 2,
          "mode": 4
        }
      ]
    }
  ],
  "nodes": [
    {
      "children": [
        1
      ],
      "name": "RootNode (gltf orientation matrix)",
      "rotation": [
        -0.70710678118654746,
        -0,
        -0,
        0.70710678118654757
      ]
    },
    {
      "children": [
        2
      ],
      "name": "RootNode (model correction matrix)"
    },
    {
      "children": [
        3
      ],
      "matrix": [
        1,
        0,
        0,
        0,
        0,
        0,
        1,
        0,
        0,
        -1,
        0,
        0,
        0,
        0,
        0,
        1
      ],
      "name": "e9c0e2a0635346a9a016c6125b8d1f16.fbx"
    },
    {
      "children": [
        4
      ],
      "name": "RootNode"
    },
    {
      "children": [
        5,
        6,
        7
      ],
      "matrix": [
        1.749260219148838,
        0,
        1.8416537383332241,
        0,
        1.8416537383332241,
        0,
        -1.7492602191488378,
        0,
        0,
        2.5399999618530273,
        0,
        0,
        -3.9444680213928223,
        -110.78730773925781,
        2.9850959777832031,
        1
      ],
      "name": "Tronco"
    },
    {
      "mesh": 0,
      "name": "Tronco_Material #41_0"
    },
    {
      "mesh": 1,
      "name": "Tronco_Material #42_0"
    },
    {
      "mesh": 2,
      "name": "Tronco_Material #45_0"
    }
  ],
  "samplers": [
    {
      "magFilter": 9729,
      "minFilter": 9987,
      "wrapS": 10497,
      "wrapT": 10497
    }
  ],
  "scene": 0,
  "scenes": [
    {
      "name": "OSG_Scene",
      "nodes": [
        0
      ]
    }
  ],
  "textures": [
    {
      "sampler": 0,
      "source": 0
    },
    {
      "sampler": 0,
      "source": 1
    },
    {
      "sampler": 0,
      "source": 2
    }
  ]
}

