{
  "accessors": [
    {
      "bufferView": 1,
      "componentType": 5126,
      "count": 36,
      "max": [
        5.4332599639892578,
        5.4328489303588867,
        0.48098516464233398
      ],
      "min": [
        0.42850208282470703,
        0.42814993858337402,
        0.42142105102539062
      ],
      "type": "VEC3"
    },
    {
      "bufferView": 1,
      "byteOffset": 432,
      "componentType": 5126,
      "count": 36,
      "max": [
        0.018600484356284142,
        0.014299853704869747,
        0.99989223480224609
      ],
      "min": [
        -0.019899368286132812,
        -0.024200078099966049,
        0.99970120191574097
      ],
      "type": "VEC3"
    },
    {
      "bufferView": 0,
      "componentType": 5125,
      "count": 36,
      "max": [
        35
      ],
      "min": [
        0
      ],
      "type": "SCALAR"
    },
    {
      "bufferView": 1,
      "byteOffset": 864,
      "componentType": 5126,
      "count": 2001,
      "max": [
        4.7464971542358398,
        3.7692980766296387,
        1.4527983665466309
      ],
      "min": [
        1.0769170522689819,
        2.0026450157165527,
        0.66912508010864258
      ],
      "type": "VEC3"
    },
    {
      "bufferView": 1,
      "byteOffset": 24876,
      "componentType": 5126,
      "count": 2001,
      "max": [
        0.99886596202850342,
        0.99978345632553101,
        1
      ],
      "min": [
        -0.99999797344207764,
        -0.99980396032333374,
        -1
      ],
      "type": "VEC3"
    },
    {
      "bufferView": 0,
      "byteOffset": 144,
      "componentType": 5125,
      "count": 2166,
      "max": [
        2000
      ],
      "min": [
        0
      ],
      "type": "SCALAR"
    },
    {
      "bufferView": 1,
      "byteOffset": 48888,
      "componentType": 5126,
      "count": 8,
      "max": [
        2.6469829082489014,
        3.6926391124725342,
        1.1873531341552734
      ],
      "min": [
        2.4884679317474365,
        2.144273042678833,
        1.1402311325073242
      ],
      "type": "VEC3"
    },
    {
      "bufferView": 1,
      "byteOffset": 48984,
      "componentType": 5126,
      "count": 8,
      "max": [
        0.96906846761703491,
        0.24679197371006012,
        0
      ],
      "min": [
        0.91146260499954224,
        -0.41138312220573425,
        0
      ],
      "type": "VEC3"
    },
    {
      "bufferView": 0,
      "byteOffset": 8808,
      "componentType": 5125,
      "count": 12,
      "max": [
        7
      ],
      "min": [
        0
      ],
      "type": "SCALAR"
    },
    {
      "bufferView": 1,
      "byteOffset": 49080,
      "componentType": 5126,
      "count": 78,
      "max": [
        4.7225589752197266,
        3.4239680767059326,
        1.2006821632385254
      ],
      "min": [
        4.6005549430847168,
        2.048443078994751,
        1.0207481384277344
      ],
      "type": "VEC3"
    },
    {
      "bufferView": 1,
      "byteOffset": 50016,
      "componentType": 5126,
      "count": 78,
      "max": [
        0.99907094240188599,
        -0.037698056548833847,
        0.22820663452148438
      ],
      "min": [
        0.96832817792892456,
        -0.13629342615604401,
        -0.024000497534871101
      ],
      "type": "VEC3"
    },
    {
      "bufferView": 0,
      "byteOffset": 8856,
      "componentType": 5125,
      "count": 90,
      "max": [
        77
      ],
      "min": [
        0
      ],
      "type": "SCALAR"
    },
    {
      "bufferView": 1,
      "byteOffset": 50952,
      "componentType": 5126,
      "count": 866,
      "max": [
        4.3572440147399902,
        3.7699899673461914,
        1.046234130859375
      ],
      "min": [
        1.5404230356216431,
        1.9924880266189575,
        0.43477296829223633
      ],
      "type": "VEC3"
    },
    {
      "bufferView": 1,
      "byteOffset": 61344,
      "componentType": 5126,
      "count": 866,
      "max": [
        0.97273385524749756,
        0.99971872568130493,
        0.95218521356582642
      ],
      "min": [
        -0.96796721220016479,
        -0.99981683492660522,
        -0.95948594808578491
      ],
      "type": "VEC3"
    },
    {
      "bufferView": 0,
      "byteOffset": 9216,
      "componentType": 5125,
      "count": 1008,
      "max": [
        865
      ],
      "min": [
        0
      ],
      "type": "SCALAR"
    },
    {
      "bufferView": 1,
      "byteOffset": 71736,
      "componentType": 5126,
      "count": 264,
      "max": [
        4.5002880096435547,
        3.6400079727172852,
        1.4391770362854004
      ],
      "min": [
        2.2800390720367432,
        2.1102728843688965,
        1.1194500923156738
      ],
      "type": "VEC3"
    },
    {
      "bufferView": 1,
      "byteOffset": 74904,
      "componentType": 5126,
      "count": 264,
      "max": [
        0.16100615262985229,
        0.81982004642486572,
        0.99947959184646606
      ],
      "min": [
        -0.47189345955848694,
        -0.81154197454452515,
        0.57211399078369141
      ],
      "type": "VEC3"
    },
    {
      "bufferView": 0,
      "byteOffset": 13248,
      "componentType": 5125,
      "count": 264,
      "max": [
        263
      ],
      "min": [
        0
      ],
      "type": "SCALAR"
    },
    {
      "bufferView": 1,
      "byteOffset": 78072,
      "componentType": 5126,
      "count": 1198,
      "max": [
        4.6727590560913086,
        3.7807421684265137,
        0.91898107528686523
      ],
      "min": [
        1.6378799676895142,
        1.9776550531387329,
        0.54400205612182617
      ],
      "type": "VEC3"
    },
    {
      "bufferView": 1,
      "byteOffset": 92448,
      "componentType": 5126,
      "count": 1198,
      "max": [
        0.99995768070220947,
        0.99976891279220581,
        0.96880024671554565
      ],
      "min": [
        -0.96740669012069702,
        -0.99970501661300659,
        -0.97253328561782837
      ],
      "type": "VEC3"
    },
    {
      "bufferView": 0,
      "byteOffset": 14304,
      "componentType": 5125,
      "count": 1512,
      "max": [
        1197
      ],
      "min": [
        0
      ],
      "type": "SCALAR"
    },
    {
      "bufferView": 1,
      "byteOffset": 106824,
      "componentType": 5126,
      "count": 250,
      "max": [
        5.8619470596313477,
        5.8623943328857422,
        1.0202641487121582
      ],
      "min": [
        0,
        0,
        0.24895429611206055
      ],
      "type": "VEC3"
    },
    {
      "bufferView": 1,
      "byteOffset": 109824,
      "componentType": 5126,
      "count": 250,
      "max": [
        0.99622553586959839,
        0.99622553586959839,
        1
      ],
      "min": [
        -0.99622553586959839,
        -0.99622553586959839,
        -1
      ],
      "type": "VEC3"
    },
    {
      "bufferView": 0,
      "byteOffset": 20352,
      "componentType": 5125,
      "count": 360,
      "max": [
        249
      ],
      "min": [
        0
      ],
      "type": "SCALAR"
    },
    {
      "bufferView": 1,
      "byteOffset": 112824,
      "componentType": 5126,
      "count": 2019,
      "max": [
        5.7626152038574219,
        5.764033317565918,
        1.4183902740478516
      ],
      "min": [
        0.09920191764831543,
        0.087520122528076172,
        0
      ],
      "type": "VEC3"
    },
    {
      "bufferView": 1,
      "byteOffset": 137052,
      "componentType": 5126,
      "count": 2019,
      "max": [
        0.99927091598510742,
        0.99990761280059814,
        1
      ],
      "min": [
        -0.99995863437652588,
        -0.99981087446212769,
        -1
      ],
      "type": "VEC3"
    },
    {
      "bufferView": 0,
      "byteOffset": 21792,
      "componentType": 5125,
      "count": 2712,
      "max": [
        2018
      ],
      "min": [
        0
      ],
      "type": "SCALAR"
    }
  ],
  "asset": {
    "extras": {
      "author": "Milmac (https://sketchfab.com/Milmac11)",
      "license": "CC-BY-4.0 (http://creativecommons.org/licenses/by/4.0/)",
      "source": "https://sketchfab.com/3d-models/low-poly-art-delorean-db3d6320ea234e2d98938e903421ed59",
      "title": "Low Poly Art: DeLorean"
    },
    "generator": "Sketchfab-4.97.1",
    "version": "2.0"
  },
  "bufferViews": [
    {
      "buffer": 0,
      "byteLength": 32640,
      "byteOffset": 0,
      "name": "floatBufferViews",
      "target": 34963
    },
    {
      "buffer": 0,
      "byteLength": 161280,
      "byteOffset": 32640,
      "byteStride": 12,
      "name": "floatBufferViews",
      "target": 34962
    }
  ],
  "buffers": [
    {
      "byteLength": 193920,
      "uri": "scene.bin"
    }
  ],
  "materials": [
    {
      "doubleSided": true,
      "emissiveFactor": [
        0,
        0,
        0
      ],
      "name": "Chrome",
      "pbrMetallicRoughness": {
        "baseColorFactor": [
          0.64000000000000001,
          0.64000000000000001,
          0.64000000000000001,
          1
        ],
        "metallicFactor": 1,
        "roughnessFactor": 0.41634908539999999
      }
    },
    {
      "doubleSided": true,
      "emissiveFactor": [
        0,
        0,
        0
      ],
      "name": "Grass",
      "pbrMetallicRoughness": {
        "baseColorFactor": [
          0.41699032800000002,
          0.74095565230000004,
          0.29303557920000001,
          1
        ],
        "metallicFactor": 0,
        "roughnessFactor": 1
      }
    },
    {
      "doubleSided": true,
      "emissiveFactor": [
        1,
        1,
        0.37097109299999997
      ],
      "name": "Lights",
      "pbrMetallicRoughness": {
        "baseColorFactor": [
          1,
          0.95777437620000005,
          0.29038714119999998,
          1
        ],
        "metallicFactor": 0,
        "roughnessFactor": 0
      }
    },
    {
      "doubleSided": true,
      "emissiveFactor": [
        0,
        0,
        0
      ],
      "name": "Main_Color",
      "pbrMetallicRoughness": {
        "baseColorFactor": [
          0.67513953950000005,
          0.67513953950000005,
          0.67513953950000005,
          1
        ],
        "metallicFactor": 0.2865853659,
        "roughnessFactor": 0.61585365849999996
      }
    },
    {
      "doubleSided": true,
      "emissiveFactor": [
        0,
        0,
        0
      ],
      "name": "Mirror",
      "pbrMetallicRoughness": {
        "baseColorFactor": [
          0.64000000000000001,
          0.64000000000000001,
          0.64000000000000001,
          1
        ],
        "metallicFactor": 0.68464176830000001,
        "roughnessFactor": 0
      }
    },
    {
      "doubleSided": true,
      "emissiveFactor": [
        1,
        0,
        0
      ],
      "name": "Rear_Lights.001",
      "pbrMetallicRoughness": {
        "baseColorFactor": [
          0.95040749170000005,
          0.0092927189999999996,
          0.0092927189999999996,
          1
        ],
        "metallicFactor": 0,
        "roughnessFactor": 0.19073932930000001
      }
    },
    {
      "doubleSided": true,
      "emissiveFactor": [
        0,
        0,
        0
      ],
      "name": "Secondary_Color",
      "pbrMetallicRoughness": {
        "baseColorFactor": [
          0.075895580399999996,
          0.075895580399999996,
          0.075895580399999996,
          1
        ],
        "metallicFactor": 0,
        "roughnessFactor": 1
      }
    },
    {
      "doubleSided": true,
      "emissiveFactor": [
        0,
        0,
        0
      ],
      "name": "Wheels",
      "pbrMetallicRoughness": {
        "baseColorFactor": [
          0.027606939300000001,
          0.026715609000000001,
          0.026715609000000001,
          1
        ],
        "metallicFactor": 0,
        "roughnessFactor": 1
      }
    },
    {
      "doubleSided": true,
      "emissiveFactor": [
        0,
        0,
        0
      ],
      "name": "Windows",
      "pbrMetallicRoughness": {
        "baseColorFactor": [
          0.041671693500000002,
          0.041671693500000002,
          0.041671693500000002,
          1
        ],
        "metallicFactor": 0.270007622,
        "roughnessFactor": 0.1053734756
      }
    }
  ],
  "meshes": [
    {
      "primitives": [
        {
          "attributes": {
            "NORMAL": 1,
            "POSITION": 0
          },
          "indices": 2,
          "material": 1,
          "mode": 4
        }
      ]
    },
    {
      "primitives": [
        {
          "attributes": {
            "NORMAL": 4,
            "POSITION": 3
          },
          "indices": 5,
          "material": 3,
          "mode": 4
        }
      ]
    },
    {
      "primitives": [
        {
          "attributes": {
            "NORMAL": 7,
            "POSITION": 6
          },
          "indices": 8,
          "material": 4,
          "mode": 4
        }
      ]
    },
    {
      "primitives": [
        {
          "attributes": {
            "NORMAL": 10,
            "POSITION": 9
          },
          "indices": 11,
          "material": 5,
          "mode": 4
        }
      ]
    },
    {
      "primitives": [
        {
          "attributes": {
            "NORMAL": 13,
            "POSITION": 12
          },
          "indices": 14,
          "material": 7,
          "mode": 4
        }
      ]
    },
    {
      "primitives": [
        {
          "attributes": {
            "NORMAL": 16,
            "POSITION": 15
          },
          "indices": 17,
          "material": 8,
          "mode": 4
        }
      ]
    },
    {
      "primitives": [
        {
          "attributes": {
            "NORMAL": 19,
            "POSITION": 18
          },
          "indices": 20,
          "material": 0,
          "mode": 4
        }
      ]
    },
    {
      "primitives": [
        {
          "attributes": {
            "NORMAL": 22,
            "POSITION": 21
          },
          "indices": 23,
          "material": 2,
          "mode": 4
        }
      ]
    },
    {
      "primitives": [
        {
          "attributes": {
            "NORMAL": 25,
            "POSITION": 24
          },
          "indices": 26,
          "material": 6,
          "mode": 4
        }
      ]
    }
  ],
  "nodes": [
    {
      "children": [
        1
      ],
      "name": "RootNode (gltf orientation matrix)",
      "rotation": [
        -0.70710678118654746,
        -0,
        -0,
        0.70710678118654757
      ]
    },
    {
      "children": [
        2
      ],
      "name": "RootNode (model correction matrix)"
    },
    {
      "children": [
        3
      ],
      "matrix": [
        1,
        0,
        0,
        0,
        0,
        1,
        0,
        0,
        0,
        0,
        1,
        0,
        -2.7831230163574219,
        -3.2825150489807129,
        5.4174838066101074,
        1
      ],
      "name": "delorean.obj.cleaner.gles"
    },
    {
      "children": [
        4,
        5,
        6,
        7,
        8,
        9,
        10,
        11,
        12
      ],
      "name": ""
    },
    {
      "mesh": 0,
      "name": ""
    },
    {
      "mesh": 1,
      "name": ""
    },
    {
      "mesh": 2,
      "name": ""
    },
    {
      "mesh": 3,
      "name": ""
    },
    {
      "mesh": 4,
      "name": ""
    },
    {
      "mesh": 5,
      "name": ""
    },
    {
      "mesh": 6,
      "name": ""
    },
    {
      "mesh": 7,
      "name": ""
    },
    {
      "mesh": 8,
      "name": ""
    }
  ],
  "scene": 0,
  "scenes": [
    {
      "name": "OSG_Scene",
      "nodes": [
        0
      ]
    }
  ]
}

