{"asset":{"generator":"3D Builder","version":"2.0"},"scene":0,"scenes":[{"nodes":[0,1]}],"nodes":[{"mesh":0,"matrix":[39.370079040527344,0,0,0,0,-4.6932791519793682E-6,-39.370079040527344,0,0,39.370075225830078,-4.6932791519793682E-6,0,0,785.3675537109375,0.00070012675132602453,1]},{"mesh":1,"matrix":[39.370079040527344,0,0,0,0,-4.6932791519793682E-6,-39.370079040527344,0,0,39.370075225830078,-4.6932791519793682E-6,0,0,785.3675537109375,0.00070012675132602453,1]}],"meshes":[{"primitives":[{"attributes":{"POSITION":0},"mode":4,"indices":3,"material":0},{"attributes":{"POSITION":1,"COLOR_0":2},"mode":4,"indices":4}]},{"primitives":[{"attributes":{"POSITION":5},"mode":4,"indices":6,"material":1}]}],"materials":[{"name":"Metallic","pbrMetallicRoughness":{"baseColorFactor":[0.800000011920929,0.800000011920929,0.800000011920929,1],"metallicFactor":0,"roughnessFactor":0.029999971389770508},"alphaMode":"OPAQUE"},{"name":"mountain","pbrMetallicRoughness":{"baseColorFactor":[0.011789899319410324,0.009054538793861866,0.039679303765296936,1],"metallicFactor":0,"roughnessFactor":0.99735087156295776},"alphaMode":"OPAQUE"}],"accessors":[{"bufferView":0,"byteOffset":0,"count":6,"componentType":5126,"type":"VEC3","min":[-60.922580718994141,85.724044799804688,-10.892717361450195],"max":[10.184916496276855,113.73379516601562,-6.5910625457763672]},{"bufferView":0,"byteOffset":72,"count":5382,"componentType":5126,"type":"VEC3","min":[-119.26067352294922,82.463912963867188,-19.948339462280273],"max":[14.956333160400391,137.84385681152344,58.607536315917969]},{"bufferView":1,"byteOffset":0,"count":5382,"componentType":5121,"type":"VEC4","normalized":true},{"bufferView":2,"byteOffset":0,"count":6,"componentType":5125,"type":"SCALAR"},{"bufferView":2,"byteOffset":24,"count":47112,"componentType":5125,"type":"SCALAR"},{"bufferView":3,"byteOffset":0,"count":587,"componentType":5126,"type":"VEC3","min":[-119.09838104248047,82.53924560546875,-19.939346313476563],"max":[14.814351081848145,137.76727294921875,58.488262176513672]},{"bufferView":4,"byteOffset":0,"count":3528,"componentType":5125,"type":"SCALAR"}],"bufferViews":[{"buffer":0,"byteOffset":0,"byteLength":64656,"byteStride":12,"target":34962},{"buffer":0,"byteOffset":64656,"byteLength":21528,"byteStride":4,"target":34962},{"buffer":0,"byteOffset":86184,"byteLength":188472,"target":34963},{"buffer":0,"byteOffset":274656,"byteLength":7044,"byteStride":12,"target":34962},{"buffer":0,"byteOffset":281700,"byteLength":14112,"target":34963}],"buffers":[{"byteLength":295812,"uri":"scene5.bin"}]}