{"asset":{"generator":"3D Builder","version":"2.0"},"scene":0,"scenes":[{"nodes":[0,1]}],"nodes":[{"mesh":0,"matrix":[39.370079040527344,0,0,0,0,-4.6932782424846664E-6,-39.370067596435547,0,0,39.370067596435547,-4.6932782424846664E-6,0,0.00019843749760184437,785.36761474609375,-0.00088737299665808678,1]},{"mesh":1,"matrix":[39.370079040527344,0,0,0,0,-4.6932782424846664E-6,-39.370067596435547,0,0,39.370067596435547,-4.6932782424846664E-6,0,0.00019843749760184437,785.36761474609375,-0.00088737299665808678,1]}],"meshes":[{"primitives":[{"attributes":{"POSITION":0},"mode":4,"indices":1,"material":0}]},{"primitives":[{"attributes":{"POSITION":2},"mode":4,"indices":3,"material":1}]}],"materials":[{"name":"mountain","pbrMetallicRoughness":{"baseColorFactor":[0.011789899319410324,0.009054538793861866,0.039679303765296936,1],"metallicFactor":0,"roughnessFactor":0.99735087156295776},"alphaMode":"OPAQUE"},{"name":"Metallic","pbrMetallicRoughness":{"baseColorFactor":[0,0.3515326976776123,0.80695235729217529,1],"metallicFactor":0,"roughnessFactor":0.5},"alphaMode":"OPAQUE"}],"accessors":[{"bufferView":0,"byteOffset":0,"count":580,"componentType":5126,"type":"VEC3","min":[-29.746183395385742,72.1286849975586,-16.658088684082031],"max":[90.218757629394531,118.35261535644531,34.631977081298828]},{"bufferView":1,"byteOffset":0,"count":3468,"componentType":5125,"type":"SCALAR"},{"bufferView":2,"byteOffset":0,"count":5225,"componentType":5126,"type":"VEC3","min":[-29.89158821105957,72.059341430664063,-16.677164077758789],"max":[90.347160339355469,118.41859436035156,34.70025634765625]},{"bufferView":3,"byteOffset":0,"count":46074,"componentType":5125,"type":"SCALAR"}],"bufferViews":[{"buffer":0,"byteOffset":0,"byteLength":6960,"byteStride":12,"target":34962},{"buffer":0,"byteOffset":6960,"byteLength":13872,"target":34963},{"buffer":0,"byteOffset":20832,"byteLength":62700,"byteStride":12,"target":34962},{"buffer":0,"byteOffset":83532,"byteLength":184296,"target":34963}],"buffers":[{"byteLength":267828,"uri":"scene4.bin"}]}