{"asset":{"generator":"3D Builder","version":"2.0"},"scene":0,"scenes":[{"nodes":[0,1]}],"nodes":[{"mesh":0,"matrix":[1,0,0,0,0,-1.1920928955078125E-7,-0.99999988079071045,0,0,0.99999988079071045,-1.1920928955078125E-7,0,0,785.3675537109375,-9.3623122666031122E-5,1]},{"mesh":1,"matrix":[1,0,0,0,0,-1.1920928955078125E-7,-0.99999988079071045,0,0,0.99999988079071045,-1.1920928955078125E-7,0,0,785.3675537109375,-9.3623122666031122E-5,1]}],"meshes":[{"primitives":[{"attributes":{"POSITION":0},"mode":4,"indices":1,"material":0}]},{"primitives":[{"attributes":{"POSITION":2},"mode":4,"indices":3,"material":1}]}],"materials":[{"name":"black","pbrMetallicRoughness":{"baseColorFactor":[0.99180811643600464,0.051776356995105743,1,1],"metallicFactor":0,"roughnessFactor":0.78091096878051758},"alphaMode":"OPAQUE"},{"name":"floor","pbrMetallicRoughness":{"baseColorFactor":[0.0090180886909365654,0.0090180886909365654,0.0090180886909365654,1],"metallicFactor":0,"roughnessFactor":0.99798351526260376},"alphaMode":"OPAQUE"}],"accessors":[{"bufferView":0,"byteOffset":0,"count":4018,"componentType":5126,"type":"VEC3","min":[-507.78115844726562,-507.78103637695312,-3.5545272827148437],"max":[507.78115844726562,9647.83984375,3.5556168556213379]},{"bufferView":1,"byteOffset":0,"count":30720,"componentType":5125,"type":"SCALAR"},{"bufferView":2,"byteOffset":0,"count":729,"componentType":5126,"type":"VEC3","min":[-507.78115844726562,-507.78103637695312,-6.0532227507792413E-5],"max":[507.78115844726562,9647.83984375,0.0011501123663038015]},{"bufferView":3,"byteOffset":0,"count":3840,"componentType":5125,"type":"SCALAR"}],"bufferViews":[{"buffer":0,"byteOffset":0,"byteLength":48216,"byteStride":12,"target":34962},{"buffer":0,"byteOffset":48216,"byteLength":122880,"target":34963},{"buffer":0,"byteOffset":171096,"byteLength":8748,"byteStride":12,"target":34962},{"buffer":0,"byteOffset":179844,"byteLength":15360,"target":34963}],"buffers":[{"byteLength":195204,"uri":"scene6.bin"}]}