{"asset":{"generator":"3D Builder","version":"2.0"},"scene":0,"scenes":[{"nodes":[0,1,2,3,4,5,6]}],"nodes":[{"mesh":0,"matrix":[1,0,0,0,0,-1.1920928955078125E-7,-0.99999988079071045,0,0,0.99999988079071045,-1.1920928955078125E-7,0,0,2.4999983310699463,-0.00019873549172189087,1]},{"mesh":1,"matrix":[1,0,0,0,0,-1.1920928955078125E-7,-0.99999988079071045,0,0,0.99999988079071045,-1.1920928955078125E-7,0,0,2.501209020614624,10155.6171875,1]},{"mesh":2,"matrix":[1,0,0,0,0,-1.1920928955078125E-7,-0.99999988079071045,0,0,0.99999988079071045,-1.1920928955078125E-7,0,0,2.5024197101593018,20311.234375,1]},{"mesh":3,"matrix":[1,0,0,0,0,-1.1920928955078125E-7,-0.99999988079071045,0,0,0.99999988079071045,-1.1920928955078125E-7,0,0,2.5036301612854004,30466.8515625,1]},{"mesh":4,"matrix":[1,0,0,0,0,-1.1920928955078125E-7,-0.99999988079071045,0,0,0.99999988079071045,-1.1920928955078125E-7,0,0,2.4987876415252686,-10155.6171875,1]},{"mesh":5,"matrix":[1,0,0,0,0,-1.1920928955078125E-7,-0.99999988079071045,0,0,0.99999988079071045,-1.1920928955078125E-7,0,0,2.4975769519805908,-20311.234375,1]},{"mesh":6,"matrix":[1,0,0,0,0,-1.1920928955078125E-7,-0.99999988079071045,0,0,0.99999988079071045,-1.1920928955078125E-7,0,0,2.4963665008544922,-30466.8515625,1]}],"meshes":[{"primitives":[{"attributes":{"POSITION":0},"mode":4,"indices":3,"material":0},{"attributes":{"POSITION":1,"COLOR_0":2},"mode":4,"indices":4}]},{"primitives":[{"attributes":{"POSITION":5},"mode":4,"indices":8,"material":0},{"attributes":{"POSITION":6,"COLOR_0":7},"mode":4,"indices":9}]},{"primitives":[{"attributes":{"POSITION":10},"mode":4,"indices":13,"material":0},{"attributes":{"POSITION":11,"COLOR_0":12},"mode":4,"indices":14}]},{"primitives":[{"attributes":{"POSITION":15},"mode":4,"indices":18,"material":0},{"attributes":{"POSITION":16,"COLOR_0":17},"mode":4,"indices":19}]},{"primitives":[{"attributes":{"POSITION":20},"mode":4,"indices":23,"material":0},{"attributes":{"POSITION":21,"COLOR_0":22},"mode":4,"indices":24}]},{"primitives":[{"attributes":{"POSITION":25},"mode":4,"indices":28,"material":0},{"attributes":{"POSITION":26,"COLOR_0":27},"mode":4,"indices":29}]},{"primitives":[{"attributes":{"POSITION":30},"mode":4,"indices":33,"material":0},{"attributes":{"POSITION":31,"COLOR_0":32},"mode":4,"indices":34}]}],"materials":[{"name":"Metallic","pbrMetallicRoughness":{"baseColorFactor":[0.23455065488815308,0.24228119850158691,0.20863679051399231,1],"metallicFactor":1,"roughnessFactor":0.25},"alphaMode":"OPAQUE"}],"accessors":[{"bufferView":0,"byteOffset":0,"count":19538,"componentType":5126,"type":"VEC3","min":[-507.75570678710937,-5077.8095703125,-2.4999985694885254],"max":[507.75570678710937,5077.80908203125,2.4999995231628418]},{"bufferView":0,"byteOffset":234456,"count":3576,"componentType":5126,"type":"VEC3","min":[-507.75570678710937,-5077.8095703125,2.4999995231628418],"max":[507.75570678710937,5077.80908203125,2.4999995231628418]},{"bufferView":1,"byteOffset":0,"count":3576,"componentType":5121,"type":"VEC4","normalized":true},{"bufferView":2,"byteOffset":0,"count":150006,"componentType":5125,"type":"SCALAR"},{"bufferView":2,"byteOffset":600024,"count":20922,"componentType":5125,"type":"SCALAR"},{"bufferView":3,"byteOffset":0,"count":19538,"componentType":5126,"type":"VEC3","min":[-507.75570678710937,-5077.8095703125,-2.4999985694885254],"max":[507.75570678710937,5077.80908203125,2.4999995231628418]},{"bufferView":3,"byteOffset":234456,"count":3576,"componentType":5126,"type":"VEC3","min":[-507.75570678710937,-5077.8095703125,2.4999995231628418],"max":[507.75570678710937,5077.80908203125,2.4999995231628418]},{"bufferView":4,"byteOffset":0,"count":3576,"componentType":5121,"type":"VEC4","normalized":true},{"bufferView":5,"byteOffset":0,"count":150006,"componentType":5125,"type":"SCALAR"},{"bufferView":5,"byteOffset":600024,"count":20922,"componentType":5125,"type":"SCALAR"},{"bufferView":6,"byteOffset":0,"count":19538,"componentType":5126,"type":"VEC3","min":[-507.75570678710937,-5077.8095703125,-2.4999985694885254],"max":[507.75570678710937,5077.80908203125,2.4999995231628418]},{"bufferView":6,"byteOffset":234456,"count":3576,"componentType":5126,"type":"VEC3","min":[-507.75570678710937,-5077.8095703125,2.4999995231628418],"max":[507.75570678710937,5077.80908203125,2.4999995231628418]},{"bufferView":7,"byteOffset":0,"count":3576,"componentType":5121,"type":"VEC4","normalized":true},{"bufferView":8,"byteOffset":0,"count":150006,"componentType":5125,"type":"SCALAR"},{"bufferView":8,"byteOffset":600024,"count":20922,"componentType":5125,"type":"SCALAR"},{"bufferView":9,"byteOffset":0,"count":19538,"componentType":5126,"type":"VEC3","min":[-507.75570678710937,-5077.8095703125,-2.4999985694885254],"max":[507.75570678710937,5077.80908203125,2.4999995231628418]},{"bufferView":9,"byteOffset":234456,"count":3576,"componentType":5126,"type":"VEC3","min":[-507.75570678710937,-5077.8095703125,2.4999995231628418],"max":[507.75570678710937,5077.80908203125,2.4999995231628418]},{"bufferView":10,"byteOffset":0,"count":3576,"componentType":5121,"type":"VEC4","normalized":true},{"bufferView":11,"byteOffset":0,"count":150006,"componentType":5125,"type":"SCALAR"},{"bufferView":11,"byteOffset":600024,"count":20922,"componentType":5125,"type":"SCALAR"},{"bufferView":12,"byteOffset":0,"count":19538,"componentType":5126,"type":"VEC3","min":[-507.75570678710937,-5077.8095703125,-2.4999985694885254],"max":[507.75570678710937,5077.80908203125,2.4999995231628418]},{"bufferView":12,"byteOffset":234456,"count":3576,"componentType":5126,"type":"VEC3","min":[-507.75570678710937,-5077.8095703125,2.4999995231628418],"max":[507.75570678710937,5077.80908203125,2.4999995231628418]},{"bufferView":13,"byteOffset":0,"count":3576,"componentType":5121,"type":"VEC4","normalized":true},{"bufferView":14,"byteOffset":0,"count":150006,"componentType":5125,"type":"SCALAR"},{"bufferView":14,"byteOffset":600024,"count":20922,"componentType":5125,"type":"SCALAR"},{"bufferView":15,"byteOffset":0,"count":19538,"componentType":5126,"type":"VEC3","min":[-507.75570678710937,-5077.8095703125,-2.4999985694885254],"max":[507.75570678710937,5077.80908203125,2.4999995231628418]},{"bufferView":15,"byteOffset":234456,"count":3576,"componentType":5126,"type":"VEC3","min":[-507.75570678710937,-5077.8095703125,2.4999995231628418],"max":[507.75570678710937,5077.80908203125,2.4999995231628418]},{"bufferView":16,"byteOffset":0,"count":3576,"componentType":5121,"type":"VEC4","normalized":true},{"bufferView":17,"byteOffset":0,"count":150006,"componentType":5125,"type":"SCALAR"},{"bufferView":17,"byteOffset":600024,"count":20922,"componentType":5125,"type":"SCALAR"},{"bufferView":18,"byteOffset":0,"count":19538,"componentType":5126,"type":"VEC3","min":[-507.75570678710937,-5077.8095703125,-2.4999985694885254],"max":[507.75570678710937,5077.80908203125,2.4999995231628418]},{"bufferView":18,"byteOffset":234456,"count":3576,"componentType":5126,"type":"VEC3","min":[-507.75570678710937,-5077.8095703125,2.4999995231628418],"max":[507.75570678710937,5077.80908203125,2.4999995231628418]},{"bufferView":19,"byteOffset":0,"count":3576,"componentType":5121,"type":"VEC4","normalized":true},{"bufferView":20,"byteOffset":0,"count":150006,"componentType":5125,"type":"SCALAR"},{"bufferView":20,"byteOffset":600024,"count":20922,"componentType":5125,"type":"SCALAR"}],"bufferViews":[{"buffer":0,"byteOffset":0,"byteLength":277368,"byteStride":12,"target":34962},{"buffer":0,"byteOffset":277368,"byteLength":14304,"byteStride":4,"target":34962},{"buffer":0,"byteOffset":291672,"byteLength":683712,"target":34963},{"buffer":0,"byteOffset":975384,"byteLength":277368,"byteStride":12,"target":34962},{"buffer":0,"byteOffset":1252752,"byteLength":14304,"byteStride":4,"target":34962},{"buffer":0,"byteOffset":1267056,"byteLength":683712,"target":34963},{"buffer":0,"byteOffset":1950768,"byteLength":277368,"byteStride":12,"target":34962},{"buffer":0,"byteOffset":2228136,"byteLength":14304,"byteStride":4,"target":34962},{"buffer":0,"byteOffset":2242440,"byteLength":683712,"target":34963},{"buffer":0,"byteOffset":2926152,"byteLength":277368,"byteStride":12,"target":34962},{"buffer":0,"byteOffset":3203520,"byteLength":14304,"byteStride":4,"target":34962},{"buffer":0,"byteOffset":3217824,"byteLength":683712,"target":34963},{"buffer":0,"byteOffset":3901536,"byteLength":277368,"byteStride":12,"target":34962},{"buffer":0,"byteOffset":4178904,"byteLength":14304,"byteStride":4,"target":34962},{"buffer":0,"byteOffset":4193208,"byteLength":683712,"target":34963},{"buffer":0,"byteOffset":4876920,"byteLength":277368,"byteStride":12,"target":34962},{"buffer":0,"byteOffset":5154288,"byteLength":14304,"byteStride":4,"target":34962},{"buffer":0,"byteOffset":5168592,"byteLength":683712,"target":34963},{"buffer":0,"byteOffset":5852304,"byteLength":277368,"byteStride":12,"target":34962},{"buffer":0,"byteOffset":6129672,"byteLength":14304,"byteStride":4,"target":34962},{"buffer":0,"byteOffset":6143976,"byteLength":683712,"target":34963}],"buffers":[{"byteLength":6827688,"uri":"scene2.bin"}]}