{"asset":{"generator":"3D Builder","version":"2.0"},"scene":0,"scenes":[{"nodes":[0,1]}],"nodes":[{"mesh":0,"matrix":[1,0,0,0,0,-1.1920928955078125E-7,-0.99999988079071045,0,0,0.99999988079071045,-1.1920928955078125E-7,0,569.16357421875,0.00055360211990773678,4131.95068359375,1]},{"mesh":1,"matrix":[1,0,0,0,0,-1.1920928955078125E-7,-0.99999988079071045,0,0,0.99999988079071045,-1.1920928955078125E-7,0,569.16357421875,0.00055360211990773678,4131.95068359375,1]}],"meshes":[{"primitives":[{"attributes":{"POSITION":0},"mode":4,"indices":3,"material":0},{"attributes":{"POSITION":1,"COLOR_0":2},"mode":4,"indices":4}]},{"primitives":[{"attributes":{"POSITION":5},"mode":4,"indices":6,"material":1}]}],"materials":[{"name":"Metallic","pbrMetallicRoughness":{"baseColorFactor":[0.800000011920929,0.800000011920929,0.800000011920929,1],"metallicFactor":0,"roughnessFactor":0.029999971389770508},"alphaMode":"OPAQUE"},{"name":"Metallic","pbrMetallicRoughness":{"baseColorFactor":[0,0.3515326976776123,0.80695235729217529,1],"metallicFactor":0,"roughnessFactor":0.5},"alphaMode":"OPAQUE"}],"accessors":[{"bufferView":0,"byteOffset":0,"count":6,"componentType":5126,"type":"VEC3","min":[-2398.52685546875,3374.9609375,356.52041625976562],"max":[400.98095703125,4477.70654296875,525.8768310546875]},{"bufferView":0,"byteOffset":72,"count":5382,"componentType":5126,"type":"VEC3","min":[-4695.30224609375,3246.609375,-6.103515625E-5],"max":[588.83203125,5426.92138671875,3092.75]},{"bufferView":1,"byteOffset":0,"count":5382,"componentType":5121,"type":"VEC4","normalized":true},{"bufferView":2,"byteOffset":0,"count":6,"componentType":5125,"type":"SCALAR"},{"bufferView":2,"byteOffset":24,"count":47112,"componentType":5125,"type":"SCALAR"},{"bufferView":3,"byteOffset":0,"count":5225,"componentType":5126,"type":"VEC3","min":[-1176.833984375,2836.9814453125,128.78656005859375],"max":[3556.97509765625,4662.14794921875,2151.5185546875]},{"bufferView":4,"byteOffset":0,"count":46074,"componentType":5125,"type":"SCALAR"}],"bufferViews":[{"buffer":0,"byteOffset":0,"byteLength":64656,"byteStride":12,"target":34962},{"buffer":0,"byteOffset":64656,"byteLength":21528,"byteStride":4,"target":34962},{"buffer":0,"byteOffset":86184,"byteLength":188472,"target":34963},{"buffer":0,"byteOffset":274656,"byteLength":62700,"byteStride":12,"target":34962},{"buffer":0,"byteOffset":337356,"byteLength":184296,"target":34963}],"buffers":[{"byteLength":521652,"uri":"scene3.bin"}]}